<?xml version="1.0" encoding="UTF-8"?>
<svg id="Layer_2" data-name="Layer 2" xmlns="http://www.w3.org/2000/svg" viewBox="0 0 47.51 47.51">
  <defs>
    <style>
      .cls-1, .cls-2 {
        stroke-width: 0px;
      }

      .cls-2 {
        fill: #fff;
      }
    </style>
  </defs>
  <g id="Layer_1-2" data-name="Layer 1">
    <g>
      <path class="cls-2" d="M0,44.54c0-14.85,0-29.69,0-44.54,15.84,0,31.67,0,47.51,0,0,1.51,0,3.03,0,4.54-.03-.13-.07-.26-.1-.4-.42-1.67-1.78-2.79-3.49-2.86-1.17-.05-2.13.42-2.94,1.23-.58.58-.58.58-.24,1.29.96,1.98,1.92,3.96,2.89,5.95.06.13.14.25.23.42.65-.65,1.26-1.29,1.9-1.89.84-.78,1.53-1.64,1.75-2.81v42.04H0c0-.83,0-1.67,0-2.5.3.21.58.5.92.63.49.18,1.01.27,1.53.35,3.3.51,6.35-.08,8.85-2.38,2.1-1.91,4.05-3.98,6.07-5.98.27-.27.3-.59.23-.94-.11-.54-.25-1.08-.32-1.63-.03-.19.05-.46.18-.6.43-.48.9-.94,1.37-1.38.11-.1.33-.18.48-.15,1.01.18,1.85-.11,2.57-.83,4.69-4.68,9.38-9.36,14.07-14.04.21-.21.22-.38.11-.64-.97-2.2-1.92-4.41-2.88-6.61-.05-.11-.11-.21-.22-.41-.14.18-.23.33-.35.45-2.28,2.28-4.57,4.56-6.85,6.84-3.68,3.68-7.37,7.35-11.05,11.03-.38.38-.72.79-.71,1.35,0,.34-.14.54-.36.75-4.38,4.36-8.75,8.72-13.12,13.09C.34,44.1.18,44.33,0,44.54ZM40.55,13.48c.63-.64,1.2-1.24,1.8-1.81.23-.22.26-.39.12-.67-1.03-2.1-2.05-4.21-3.07-6.31-.06-.12-.13-.23-.24-.43-.53.55-1,1.08-1.51,1.56-.26.25-.27.45-.13.75.92,2.07,1.83,4.14,2.73,6.21.09.21.18.41.31.69ZM37.45,16.59c.57-.58,1.08-1.12,1.62-1.63.21-.2.24-.36.11-.63-.97-2.18-1.92-4.36-2.88-6.55-.05-.12-.11-.24-.2-.41-.6.61-1.17,1.17-1.72,1.74-.06.06-.07.23-.03.32,1.02,2.36,2.04,4.71,3.1,7.16Z"/>
      <path class="cls-1" d="M0,44.54c.18-.21.34-.44.53-.63,4.37-4.37,8.74-8.73,13.12-13.09.21-.21.36-.42.36-.75-.01-.56.33-.97.71-1.35,3.69-3.67,7.37-7.35,11.05-11.03,2.28-2.28,4.57-4.56,6.85-6.84.12-.12.21-.27.35-.45.11.2.18.31.22.41.96,2.2,1.91,4.41,2.88,6.61.11.26.1.43-.11.64-4.7,4.67-9.38,9.35-14.07,14.04-.72.72-1.56,1.02-2.57.83-.15-.03-.36.05-.48.15-.48.44-.94.89-1.37,1.38-.13.14-.21.41-.18.6.07.55.21,1.09.32,1.63.07.35.04.67-.23.94-2.02,2-3.98,4.06-6.07,5.98-2.51,2.29-5.55,2.88-8.85,2.38-.52-.08-1.04-.17-1.53-.35-.34-.12-.61-.41-.92-.63,0-.15,0-.31,0-.46ZM9.25,41.14c.07-.03.26-.05.37-.15.6-.57,1.2-1.15,1.76-1.76.28-.31.24-.7-.05-1-.29-.3-.68-.39-1-.11-.64.58-1.27,1.17-1.82,1.83-.39.47.01,1.17.72,1.19ZM7.57,42.75c.43,0,.79-.37.78-.8,0-.43-.33-.75-.77-.76-.45,0-.81.33-.81.77,0,.43.37.8.79.8Z"/>
      <path class="cls-1" d="M47.51,5.46c-.21,1.17-.91,2.02-1.75,2.81-.64.6-1.25,1.24-1.9,1.89-.09-.16-.17-.29-.23-.42-.96-1.98-1.93-3.96-2.89-5.95-.35-.72-.34-.71.24-1.29.81-.81,1.77-1.28,2.94-1.23,1.71.08,3.07,1.19,3.49,2.86.03.13.07.26.1.4v.93Z"/>
      <path class="cls-1" d="M40.55,13.48c-.12-.28-.21-.48-.31-.69-.91-2.07-1.81-4.15-2.73-6.21-.14-.31-.13-.51.13-.75.52-.48.99-1.01,1.51-1.56.11.2.18.31.24.43,1.02,2.1,2.04,4.21,3.07,6.31.14.28.11.45-.12.67-.6.57-1.17,1.17-1.8,1.81Z"/>
      <path class="cls-1" d="M37.45,16.59c-1.06-2.45-2.09-4.8-3.1-7.16-.04-.09-.03-.26.03-.32.55-.58,1.12-1.14,1.72-1.74.09.18.15.29.2.41.96,2.18,1.91,4.37,2.88,6.55.12.27.1.43-.11.63-.53.51-1.04,1.05-1.62,1.63Z"/>
      <path class="cls-2" d="M9.25,41.14c-.71-.02-1.12-.72-.72-1.19.55-.66,1.18-1.25,1.82-1.83.32-.29.71-.2,1,.11.29.3.33.69.05,1-.56.61-1.16,1.19-1.76,1.76-.11.11-.3.12-.37.15Z"/>
      <path class="cls-2" d="M7.57,42.75c-.43,0-.8-.37-.79-.8,0-.44.36-.77.81-.77.44,0,.76.33.77.76,0,.44-.35.8-.78.8Z"/>
    </g>
  </g>
</svg>